<svg width="33" height="23" viewBox="0 0 33 23" fill="none" xmlns="http://www.w3.org/2000/svg">
<path d="M32.3104 3.59149C31.9308 2.17782 30.8127 1.06449 29.3928 0.686663C26.8194 0 16.4999 0 16.4999 0C16.4999 0 6.1806 0 3.60717 0.686663C2.18728 1.06449 1.06903 2.17782 0.689624 3.59149C0 6.15395 0 11.5001 0 11.5001C0 11.5001 0 16.8462 0.689624 19.4087C1.06903 20.8223 2.18728 21.9355 3.60717 22.3135C6.1806 23 16.4999 23 16.4999 23C16.4999 23 26.8194 23 29.3928 22.3135C30.8127 21.9355 31.9308 20.8222 32.3104 19.4088C33 16.8461 33 11.5001 33 11.5001C33 11.5001 33 6.15395 32.3104 3.59149" fill="white"/>
<path d="M13.1249 16.3538L21.75 11.5001L13.1249 6.64606V16.3538Z" fill="#09203F"/>
</svg>
