<svg width="929" height="800" viewBox="0 0 929 800" fill="none" xmlns="http://www.w3.org/2000/svg">
<g opacity="0.3">
<path fill-rule="evenodd" clip-rule="evenodd" d="M391.897 632.427C347.847 679.879 274.095 683.83 225.228 641.355L-340.262 149.834C-395.829 101.535 -395.201 15.0491 -338.939 -32.4378L158.073 -451.929C206.433 -492.745 278.177 -488.993 322.015 -443.355L786.904 40.6282C830.966 86.4997 831.582 158.782 788.309 205.398L391.897 632.427Z" fill="#B2EBF2"/>
<path fill-rule="evenodd" clip-rule="evenodd" d="M393.244 588.819C349.358 638.405 273.602 643.072 223.962 599.247L-345.271 96.6897C-399.033 49.2251 -399.433 -34.4881 -346.126 -82.4636L165.284 -542.729C214.529 -587.05 290.375 -583.075 334.718 -533.849L793.714 -24.315C834.566 21.0345 834.868 89.824 794.416 135.531L393.244 588.819Z" fill="#BBDEFB"/>
</g>
</svg>
