<svg width="866" height="807" viewBox="0 0 866 807" fill="none" xmlns="http://www.w3.org/2000/svg">
<g opacity="0.3">
<path fill-rule="evenodd" clip-rule="evenodd" d="M838.897 639.427C794.847 686.879 721.095 690.83 672.228 648.355L106.738 156.834C51.1708 108.535 51.7986 22.0491 108.061 -25.4378L605.073 -444.929C653.433 -485.745 725.177 -481.993 769.015 -436.355L1233.9 47.6282C1277.97 93.4997 1278.58 165.782 1235.31 212.398L838.897 639.427Z" fill="#B2EBF2"/>
<path fill-rule="evenodd" clip-rule="evenodd" d="M840.244 595.819C796.358 645.405 720.602 650.072 670.962 606.247L101.729 103.69C47.9666 56.2251 47.5672 -27.4881 100.874 -75.4636L612.284 -535.729C661.529 -580.05 737.375 -576.075 781.718 -526.849L1240.71 -17.315C1281.57 28.0345 1281.87 96.824 1241.42 142.531L840.244 595.819Z" fill="#BBDEFB"/>
</g>
</svg>
