<svg width="642" height="602" viewBox="0 0 642 602" fill="none" xmlns="http://www.w3.org/2000/svg">
<path opacity="0.1" fill-rule="evenodd" clip-rule="evenodd" d="M707.111 240.872C687.663 332.903 725.819 443.886 661.279 512.315C593.79 583.87 471.142 627.877 382.699 584.832C291.277 540.337 323.939 391.47 256.55 315.335C192.393 242.852 51.4315 257.937 14.2469 168.566C-22.8448 79.418 23.17 -28.8283 81.2643 -105.953C135.677 -178.19 226.247 -212.19 314.819 -230.466C389.251 -245.824 465.588 -230.349 535.089 -199.595C593.539 -173.731 632.683 -122.583 672.183 -72.3325C708.192 -26.5235 746.654 19.8563 753.112 77.7647C759.53 135.315 719.084 184.216 707.111 240.872Z" fill="#109FAD"/>
</svg>
